<?xml version="1.0" encoding="UTF-8" standalone="no"?>
<!-- Created with Inkscape (http://www.inkscape.org/) -->

<svg
   xmlns:dc="http://purl.org/dc/elements/1.1/"
   xmlns:cc="http://creativecommons.org/ns#"
   xmlns:rdf="http://www.w3.org/1999/02/22-rdf-syntax-ns#"
   xmlns:svg="http://www.w3.org/2000/svg"
   xmlns="http://www.w3.org/2000/svg"
   xmlns:sodipodi="http://sodipodi.sourceforge.net/DTD/sodipodi-0.dtd"
   xmlns:inkscape="http://www.inkscape.org/namespaces/inkscape"
   width="1280"
   height="1080"
   viewBox="0 0 1280.0001 1080"
   version="1.1"
   id="svg8"
   inkscape:version="0.92.2 (5c3e80d, 2017-08-06)"
   sodipodi:docname="recre_p.svg"
   inkscape:export-filename="C:\xampp\htdocs\WS-Phaser\frasquito-games-web\v_02\assets\recre_p.png"
   inkscape:export-xdpi="96"
   inkscape:export-ydpi="96">
  <defs
     id="defs2" />
  <sodipodi:namedview
     id="base"
     pagecolor="#ffffff"
     bordercolor="#666666"
     borderopacity="1.0"
     inkscape:pageopacity="0.0"
     inkscape:pageshadow="2"
     inkscape:zoom="0.5"
     inkscape:cx="1163.8896"
     inkscape:cy="390.10674"
     inkscape:document-units="px"
     inkscape:current-layer="layer1"
     showgrid="false"
     units="px"
     viewbox-y="0"
     viewbox-width="210"
     viewbox-x="0"
     width="16px"
     inkscape:window-width="1920"
     inkscape:window-height="1017"
     inkscape:window-x="1358"
     inkscape:window-y="-8"
     inkscape:window-maximized="1"
     showguides="true"
     inkscape:guide-bbox="true"
     inkscape:snap-bbox="true"
     inkscape:snap-bbox-midpoints="true"
     inkscape:snap-bbox-edge-midpoints="true"
     inkscape:bbox-nodes="true"
     inkscape:bbox-paths="true"
     inkscape:snap-global="true">
    <sodipodi:guide
       position="1280.0001,1328.6329"
       orientation="1,0"
       id="guide10"
       inkscape:locked="false" />
    <sodipodi:guide
       position="640.00002,536.50001"
       orientation="1,0"
       id="guide845"
       inkscape:locked="false" />
    <sodipodi:guide
       position="1029,540.00001"
       orientation="0,1"
       id="guide847"
       inkscape:locked="false" />
    <sodipodi:guide
       position="1596.5,1080"
       orientation="0,1"
       id="guide849"
       inkscape:locked="false" />
    <sodipodi:guide
       position="1617.8604,0"
       orientation="0,1"
       id="guide851"
       inkscape:locked="false" />
    <sodipodi:guide
       position="0,593.96971"
       orientation="1,0"
       id="guide853"
       inkscape:locked="false" />
  </sodipodi:namedview>
  <metadata
     id="metadata5">
    <rdf:RDF>
      <cc:Work
         rdf:about="">
        <dc:format>image/svg+xml</dc:format>
        <dc:type
           rdf:resource="http://purl.org/dc/dcmitype/StillImage" />
        <dc:title></dc:title>
      </cc:Work>
    </rdf:RDF>
  </metadata>
  <g
     inkscape:label="Capa 1"
     inkscape:groupmode="layer"
     id="layer1"
     transform="translate(0,-42.5196)">
    <path
       style="fill:#ffffff;fill-opacity:1;stroke:#ff0000;stroke-width:3.04112411px;stroke-linecap:butt;stroke-linejoin:miter;stroke-opacity:1"
       d="M 1274.0799,2661.0392 H 5.265736 c 0,0 4.732437,-96.6401 0,-144.611 -43.705374,-443.0228 -125.242346,-1312.8506 -125.242346,-1312.8506 0.3875,-35.0983 -6.51181,-71.3063 11.2896,-103.7519 l 94.617583,-239.43055 c 5.7732613,-18.76901 10.6184155,-38.93024 12.3647734,-63.73962 L 14.423393,154.75988 C 15.190023,137.39394 8.938799,121.10767 0.44576804,105.16632 L -94.709407,-45.89928 c -18.747843,-38.059042 -20.471313,-55.41007 -21.503983,-73.78556 l 11.02078,-442.31031 c 0.29226,-11.73097 4.63741,-23.02281 22.847992,-29.56797 14.681464,-4.20447 27.417601,0 27.417601,0 l 96.499186,69.21596 H 1238.5382 l 92.7362,-69.21596 c 10.3778,-3.66157 21.6194,-3.82388 31.4493,0 9.241,6.21459 17.6676,13.60575 20.1601,29.56797 l 10.4832,442.31031 c -0.2951,33.969901 -10.7205,54.641326 -22.3103,73.78556 l -93.5425,151.0656 c -9.9326,13.17582 -12.7627,30.7222 -13.44,49.59356 l 15.8978,641.89565 c 1.2755,26.3658 7.1044,45.90124 14.0652,63.73962 l 87.4325,239.43065 c 9.1294,26.8121 20.5154,49.6746 14.065,103.7518 0,0 -80.9789,906.6572 -121.2648,1312.8506 -4.7573,47.9685 -0.1885,144.611 -0.1885,144.611 z"
       id="path890"
       inkscape:connector-curvature="0"
       sodipodi:nodetypes="ccsccccccccscccccccccccccccsc" />
    <path
       style="fill:#f7ff00;fill-opacity:1;stroke:#00f2ff;stroke-width:3.04744697px;stroke-linecap:butt;stroke-linejoin:miter;stroke-opacity:1"
       d="M 1269.3152,1121.0395 H 11.911358 L 73.672102,934.22078 H 1208.3537 Z"
       id="path37"
       inkscape:connector-curvature="0" />
    <path
       style="fill:#0010ff;fill-opacity:1;stroke:#fff400;stroke-width:3.04112411px;stroke-linecap:butt;stroke-linejoin:miter;stroke-opacity:1"
       d="m 73.653135,934.25106 5.512017,-31.9318 H 1202.5754 l 5.7973,31.9318 H 73.653135"
       id="path844"
       inkscape:connector-curvature="0" />
    <path
       style="fill:#ff0000;fill-opacity:1;stroke:#00ff1b;stroke-width:3.03966165px;stroke-linecap:butt;stroke-linejoin:miter;stroke-opacity:1"
       d="M 1202.5758,902.32056 1133.1227,44.036043 H 149.7843 L 79.164694,902.32056 Z"
       id="path846"
       inkscape:connector-curvature="0" />
  </g>
</svg>
